<svg width="80" height="80" viewBox="0 0 80 80" fill="none" xmlns="http://www.w3.org/2000/svg">
<rect width="80" height="80" rx="40" transform="matrix(-1 0 0 1 80 0)" fill="#E2E3FD" fill-opacity="0.36"/>
<path d="M24.6583 42.5239C25.768 42.4321 27.4721 42.2954 29.1749 42.1461C29.3796 42.1276 29.6458 42.0979 29.7654 41.9658C30.0791 41.6204 30.3275 41.2141 30.6016 40.833C30.1788 40.6263 29.7647 40.261 29.3321 40.2379C26.5771 40.0899 23.8182 40.0325 21.0619 39.9136C19.1728 39.833 17.2857 39.6851 15.3967 39.6005C14.6398 39.5675 14.1219 39.9572 14.0123 40.7293C13.9152 41.4103 14.4449 41.9499 15.3267 42.0048C18.2342 42.189 21.1451 42.3324 24.6583 42.5239Z" fill="#0062E1"/>
<path d="M58.0267 42.3865C59.3377 42.3865 61.0786 42.3865 62.8194 42.3865C62.9097 42.3865 63 42.3858 63.0896 42.3805C64.0086 42.3264 64.5768 41.8317 64.5414 41.1209C64.5082 40.4585 63.9257 39.9796 63.0814 39.9578C61.7613 39.9221 60.4404 39.8798 59.1194 39.8878C56.4807 39.9043 53.8428 39.9538 51.2041 39.9908C51.1739 39.9908 51.1438 39.9941 51.1137 39.9974C50.4153 40.0853 49.5821 40.1659 49.5836 41.0489C49.5844 41.9353 50.419 42.0503 51.1183 42.0873C53.2761 42.2002 55.4361 42.2768 58.0267 42.3865Z" fill="#0062E1"/>
<path d="M38.6783 21.6606C38.8416 24.2326 38.9989 26.8033 39.1779 29.3747C39.1983 29.664 39.2985 29.9711 39.4429 30.2241C39.7538 30.7677 40.3709 30.7789 40.6472 30.2221C40.827 29.8601 40.918 29.4202 40.9271 29.0127C41.0114 25.0206 41.0739 21.0272 41.1326 17.0344C41.1439 16.2927 40.7518 15.833 40.0187 15.7563C39.397 15.6916 38.8168 16.3059 38.8039 17.0562C38.7768 18.5886 38.7956 20.121 38.7956 21.6533C38.7565 21.6553 38.7174 21.6586 38.6783 21.6606Z" fill="#0062E1"/>
<path d="M38.9709 58.2701C38.9709 60.0707 38.9536 61.8725 38.9784 63.6731C38.9904 64.5919 39.5986 65.288 40.2541 65.2306C40.8923 65.1738 41.3507 64.5034 41.3055 63.5958C41.1354 60.1182 40.9578 56.642 40.7546 53.1671C40.72 52.5759 40.5815 51.9848 40.4182 51.4134C40.3535 51.1856 40.0908 51.0132 39.9185 50.8157C39.771 51.0085 39.5173 51.1882 39.4932 51.3956C39.2471 53.5039 39.0371 55.6176 38.8212 57.7305C38.803 57.9089 38.8212 58.0905 38.8212 58.2715C38.8723 58.2702 38.9227 58.2701 38.9731 58.2701H38.9709Z" fill="#0062E1"/>
<path d="M50.457 26.897C50.2433 26.646 50.007 26.1255 49.642 26.0086C49.2799 25.8937 48.6071 26.0423 48.3851 26.3236C47.4781 27.4736 46.6781 28.7074 45.8674 29.9307C45.5544 30.4023 45.2541 30.9029 45.0735 31.434C44.9763 31.7193 45.0298 32.2266 45.2232 32.3917C45.4106 32.5529 45.9631 32.539 46.1829 32.3732C47.9101 31.074 49.1512 29.3402 50.314 27.5482C50.3901 27.4313 50.381 27.2596 50.457 26.897Z" fill="#0062E1"/>
<path d="M53.3697 49.8555C53.6331 49.6481 54.1863 49.4275 54.2842 49.0787C54.4076 48.6415 54.3256 47.8224 54.0396 47.6487C52.4108 46.6606 50.7062 45.792 48.9932 44.9505C48.7877 44.8502 48.1554 45.111 48.1141 45.2947C48.035 45.6401 48.1141 46.2108 48.3512 46.409C49.7142 47.5272 51.1412 48.5695 52.5591 49.6203C52.7164 49.7353 52.9551 49.7399 53.3697 49.8555Z" fill="#0062E1"/>
<path d="M48.6283 56.2471C48.9572 55.9796 49.4148 55.7907 49.4803 55.5106C49.5758 55.0991 49.5307 54.5264 49.3004 54.1916C48.6547 53.2536 47.8704 52.4128 47.1645 51.5145C46.682 50.9003 46.2997 50.1955 45.7563 49.6473C45.456 49.3428 44.9156 49.2761 44.4835 49.1024C44.4377 49.5991 44.1908 50.2001 44.3835 50.5746C45.0555 51.8772 45.8639 53.113 46.6557 54.3514C46.9605 54.8296 47.3323 55.2741 47.7251 55.685C47.9351 55.9043 48.2535 56.0205 48.6283 56.2471Z" fill="#0062E1"/>
<path d="M35.0547 30.5974C34.9237 30.3021 34.7717 29.7718 34.4812 29.3345C33.5042 27.8622 32.4834 26.4177 31.4669 24.9712C31.1261 24.4864 30.708 24.0643 30.0455 24.3417C29.4629 24.5855 29.1293 25.1489 29.5091 25.6429C30.9814 27.5591 32.5072 29.4369 34.0988 31.2552C34.5301 31.748 35.0373 31.4587 35.0547 30.5974Z" fill="#0062E1"/>
<path d="M49.2164 36.3911C49.5671 36.2815 49.8637 36.2207 50.1316 36.0992C51.548 35.4565 52.96 34.8033 54.3682 34.1428C54.9868 33.8535 55.4859 33.4301 55.1577 32.6777C54.8408 31.9492 54.1822 31.8964 53.5591 32.2161C51.9485 33.0443 50.1075 33.4994 48.877 34.9545C48.6617 35.2088 48.5985 35.652 48.6075 36.0054C48.615 36.1415 49.0102 36.2676 49.2164 36.3911Z" fill="#0062E1"/>
<path d="M31.9684 54.7148C32.2187 55.0041 32.4076 55.4057 32.7055 55.5166C33.0028 55.6283 33.4935 55.5615 33.7449 55.37C34.0821 55.1144 34.3109 54.6837 34.5148 54.2914C35.0951 53.1778 35.6874 52.0655 36.1631 50.9063C36.2888 50.5998 36.0126 50.1289 35.9208 49.7339C35.552 49.9063 35.0613 49.9829 34.8378 50.2689C34.0098 51.3264 33.258 52.444 32.5054 53.5589C32.2947 53.872 32.1804 54.2498 31.9684 54.7148Z" fill="#0062E1"/>
<path d="M25.4876 32.2078C25.2571 32.3848 24.8627 32.5413 24.7551 32.8121C24.6468 33.0843 24.7432 33.5136 24.8978 33.793C25.0252 34.0255 25.3489 34.184 25.6184 34.2989C27.1613 34.9641 28.7049 35.6279 30.2716 36.2329C30.5279 36.332 30.8978 36.1391 31.2148 36.0823C31.0748 35.7639 31.0253 35.3036 30.7816 35.1503C29.3357 34.2461 27.8469 33.4072 26.3661 32.5592C26.1349 32.4284 25.8694 32.3584 25.4876 32.2078Z" fill="#0062E1"/>
<path d="M30.8803 45.8754C30.6677 45.9678 30.4834 46.0088 30.3467 46.1132C29.2991 46.9084 28.241 47.6918 27.2277 48.5313C26.7416 48.9335 26.4279 49.4837 26.9444 50.0881C27.3321 50.5432 27.8843 50.6185 28.2997 50.207C29.34 49.1779 30.3328 48.0986 31.2998 46.9996C31.449 46.8298 31.4226 46.4394 31.3619 46.1785C31.3302 46.0451 31.0422 45.9705 30.8803 45.8754Z" fill="#0062E1"/>
</svg>
