<svg width="80" height="80" viewBox="0 0 80 80" fill="none" xmlns="http://www.w3.org/2000/svg">
<rect width="80" height="80" rx="40" transform="matrix(-1 0 0 1 80 0)" fill="#E2E3FD" fill-opacity="0.36"/>
<path d="M48.6072 33.8433C48.5519 33.7821 48.4961 33.7209 48.4404 33.6593C48.6872 33.4105 48.895 33.1046 49.2803 33.0547C49.319 33.1051 49.3577 33.155 49.3963 33.205C49.1333 33.4182 48.8703 33.6305 48.6072 33.8433ZM40.5532 59.5757C40.5604 60.3031 40.4732 60.4839 40.1234 60.5208C39.6656 60.5685 39.3986 60.2527 39.2978 59.4952C39.7034 59.5213 40.1 59.5465 40.5532 59.5757ZM32.8684 27.3567C33.6148 27.7989 34.524 29.5236 34.4858 30.4322C33.5685 29.5834 32.89 28.6689 32.8684 27.3567ZM42.1135 25.2893C42.5896 26.6375 42.3585 27.7404 41.6373 28.838C41.0726 27.6797 41.2407 26.2074 42.1135 25.2893ZM36.912 65.5301C35.2111 66.2845 32.6769 65.0501 32.6144 63.4371C33.6337 63.294 35.7138 64.3075 36.912 65.5301ZM33.9485 55.9452C37.8122 57.2159 39.118 57.5142 45.3747 56.5173C45.1868 57.3225 44.9966 57.5519 44.301 57.8101C41.5595 58.8277 38.8077 58.6464 36.0762 57.8106C35.144 57.5259 34.3675 56.9541 33.9485 55.9452ZM33.533 52.8049C37.9408 53.9934 42.3356 54.1202 46.7776 52.961C46.8954 53.275 47.0227 53.5219 47.0793 53.7837C47.2048 54.3595 47.0798 54.5849 46.5173 54.8039C45.9768 55.0136 45.4381 55.2614 44.8752 55.373C42.2493 55.8943 39.6027 55.9865 36.9538 55.5785C35.9053 55.4171 34.9296 55.0172 34.0694 54.3762C33.5658 54.0014 33.305 53.5318 33.533 52.8049ZM41.1072 30.9207C42.3509 33.048 44.2007 34.2337 46.4323 34.9566C44.6297 39.4364 43.7996 44.0575 43.5002 48.8163C41.6571 48.8482 39.8473 48.8783 37.9467 48.9107C38.2124 46.0467 38.1584 43.2874 37.9017 40.5313C37.6472 37.7928 37.0717 35.1077 36.4219 32.3624C38.2308 32.5253 39.7219 32.0498 41.1072 30.9207ZM40.5964 30.0265C39.4129 31.0449 38.0555 31.5024 36.4705 31.2784C36.0334 31.2163 35.9062 30.9378 35.7533 30.5883C35.2888 29.5249 34.8104 28.4656 34.278 27.4359C34.0946 27.0814 33.778 26.7612 33.4502 26.5246C32.7443 26.014 32.0618 26.3478 31.9795 27.211C31.9566 27.4566 31.9435 27.7202 32.0074 27.9537C32.4426 29.5497 33.1517 30.9675 34.7092 31.7592C35.1238 31.9693 35.3064 32.2779 35.4264 32.703C36.2182 35.5135 36.6778 38.3807 36.9102 41.2861C37.0896 43.5249 37.1688 45.7678 36.979 48.0124C36.9561 48.2819 36.9444 48.5522 36.9246 48.8599C35.9583 48.9472 35.0905 48.881 34.2762 48.478C33.5613 48.124 33.1364 47.5082 32.9435 46.7579C32.8199 46.2797 32.8001 45.7741 32.7389 45.2802C32.7079 45.0332 32.7506 44.7525 32.6445 44.5465C32.5478 44.3594 32.2947 44.1417 32.1117 44.1425C31.9282 44.1434 31.7443 44.3967 31.564 44.5429C31.5469 44.5564 31.5469 44.5946 31.5451 44.6221C31.4723 45.8879 31.5874 47.1195 32.2843 48.222C32.9143 49.2189 33.832 49.8018 34.9997 49.9363C35.7965 50.0281 36.6018 50.1005 37.4012 50.0875C39.6994 50.0542 41.997 49.9818 44.2938 49.9089C45.6985 49.8644 47.0469 49.6107 48.1729 48.6944C48.8545 49.4523 48.8891 50.2089 48.2353 50.8288C47.9633 51.087 47.6086 51.2858 47.2578 51.4275C45.8846 51.9822 44.439 52.2363 42.971 52.3591C39.9372 52.6128 36.9368 52.4594 34.0065 51.5548C33.6386 51.441 33.2753 51.2939 32.9323 51.1176C32.3423 50.8144 31.8518 50.4397 31.9754 49.6435C32.0168 49.3754 31.9529 49.0524 31.609 48.9854C31.2349 48.9134 30.9476 49.1186 30.8068 49.4456C30.5334 50.0839 30.6108 50.7163 31.0703 51.235C31.4323 51.6439 31.8747 51.9817 32.3302 52.3951C32.1157 53.0496 32.176 53.7473 32.4844 54.4283C32.5501 54.5741 32.5685 54.7455 32.5851 54.9083C32.7713 56.7477 33.7821 57.9824 35.4543 58.6473C36.3217 58.9918 37.2547 59.1695 38.2164 59.4385C38.4251 60.1232 38.7956 60.7439 39.386 61.3116C40.3563 62.2441 39.9359 64.029 38.6315 64.7155C38.1701 64.3902 37.6782 64.0403 37.1832 63.6944C36.1562 62.9769 35.0797 62.3539 33.8648 62.0124C33.5478 61.9234 33.2128 61.855 32.8851 61.8523C31.5492 61.8393 30.7969 62.9418 31.2987 64.177C31.6355 65.0052 32.2398 65.5989 33.0213 66.0236C34.426 66.786 35.9107 66.7298 37.3882 66.3726C37.8855 66.2525 38.2191 66.3313 38.6018 66.6088C40.9786 68.3334 43.6755 69.0608 46.5753 68.996C47.7839 68.9691 49.0119 68.8238 50.105 68.1922C50.3878 68.0289 50.7021 67.8845 50.6827 67.3744C49.8509 67.3537 49.1567 67.8719 48.3756 67.9111C47.6018 67.9493 46.8203 68.0105 46.0532 67.9398C45.2601 67.867 44.4642 67.7032 43.7007 67.4752C42.9633 67.2557 42.2448 66.9448 41.5568 66.5971C40.8469 66.2377 40.1841 65.7852 39.5712 65.4159C39.9611 64.7249 40.4629 64.1478 40.6085 63.491C40.7502 62.8518 40.5285 62.1321 40.4593 61.3741C41.1072 61.0116 41.4251 60.3706 41.4192 59.5204C41.9772 59.3949 42.5141 59.2883 43.0429 59.1502C43.471 59.0395 43.8887 58.8866 44.3127 58.7597C45.3203 58.4575 45.8855 57.7697 46.0604 56.749C46.1229 56.3855 46.1899 56.068 46.5861 55.8799C47.9336 55.2407 48.3626 54.3492 47.6117 52.8274C47.5897 52.7829 47.5987 52.723 47.5955 52.6915C48.0447 52.3524 48.5254 52.064 48.9161 51.6821C49.8595 50.7609 49.9656 49.4996 49.1621 48.4546C48.8743 48.0799 48.8217 47.7592 48.9004 47.3215C49.0128 46.6962 49.0596 46.0575 49.1108 45.4223C49.1423 45.0337 49.1221 45.0323 48.6971 44.6135C48.5735 44.7966 48.4107 44.9504 48.355 45.1371C48.2223 45.5865 48.1131 46.0476 48.0429 46.5109C47.8941 47.4942 47.3226 48.1154 46.4125 48.415C45.8689 48.5941 45.2943 48.6786 44.7772 48.796C44.3891 48.3251 44.4584 47.8676 44.5033 47.4366C44.7641 44.9558 45.0694 42.4782 45.7484 40.072C46.1531 38.6357 46.671 37.2314 47.1373 35.8126C47.2983 35.3246 47.5519 35.0394 48.149 35.0529C48.5708 35.0623 49.0173 34.8864 49.4166 34.7114C49.9822 34.4636 50.3001 33.976 50.4458 33.3795C50.5524 32.9436 50.4935 32.5505 50.1292 32.2486C49.7925 31.9684 49.4071 31.9814 49.0312 32.1294C48.7776 32.2293 48.5245 32.3624 48.3127 32.5325C48.0344 32.756 47.7376 32.9949 47.5546 33.2927C47.2344 33.814 46.8185 33.7983 46.3415 33.6354C45.2268 33.2544 44.2232 32.6778 43.3468 31.8897C42.7861 31.3859 42.3266 30.8024 42.0195 30.0688C42.1598 29.8681 42.3037 29.6689 42.4417 29.4655C43.0986 28.4966 43.4687 27.4418 43.368 26.2569C43.3423 25.9555 43.3019 25.6456 43.2066 25.3609C42.8149 24.194 41.7983 23.9772 40.9799 24.9038C40.1877 25.8008 40.1022 26.9204 40.1863 28.0391C40.2331 28.6666 40.4372 29.2816 40.5973 30.0256L40.5964 30.0265Z" fill="#0062E1"/>
<path d="M49.5484 43.0698C49.677 42.9466 49.82 42.8598 49.8924 42.7325C51.1078 40.5886 52.3591 38.464 53.5106 36.286C54.6919 34.0503 55.583 31.6901 56.0938 29.2039C56.9949 24.8212 56.2602 20.8204 53.217 17.4048C51.4517 15.4238 49.2427 14.0653 46.8245 13.0226C44.6491 12.0843 42.3861 11.4473 40.0407 11.1396C36.7318 10.7051 33.5933 11.2903 30.6212 12.8175C28.5385 13.8876 26.7664 15.292 25.4472 17.2582C23.9112 19.5469 23.4315 22.0786 23.569 24.778C23.7997 29.2866 25.4778 33.282 27.918 36.9998C28.7543 38.2733 29.6527 39.5063 30.5241 40.7564C30.6028 40.8697 30.6851 40.984 30.7826 41.0811C31.1167 41.4158 31.5394 41.5071 31.8307 41.3182C32.1253 41.127 32.2026 40.7064 31.9926 40.2678C31.8856 40.0452 31.7305 39.845 31.5933 39.6372C30.4796 37.9499 29.297 36.3022 28.2651 34.5658C26.5776 31.7256 25.4715 28.6735 25.1684 25.3475C24.8928 22.3219 25.4539 19.5582 27.445 17.1777C28.4378 15.9906 29.6648 15.0981 30.9998 14.3433C34.3847 12.4297 37.9787 11.9493 41.7602 12.7986C44.9544 13.5152 47.9729 14.6388 50.5731 16.6973C53.092 18.6918 54.6883 21.2405 55.0979 24.46C55.3829 26.7033 54.9549 28.8719 54.2948 31.0086C53.5052 33.5654 52.289 35.9279 51.0309 38.2728C50.3883 39.4698 49.7809 40.6817 49.4504 42.0114C49.365 42.355 49.2287 42.6992 49.5484 43.0698Z" fill="#0062E1"/>
</svg>
