<svg width="80" height="80" viewBox="0 0 80 80" fill="none" xmlns="http://www.w3.org/2000/svg">
<rect width="80" height="80" rx="40" transform="matrix(-1 0 0 1 80 0)" fill="#E2E3FD" fill-opacity="0.36"/>
<path d="M51.9352 57.9738C52.0044 54.7775 52.0696 51.7463 52.1372 48.6127C52.7451 48.6347 53.3608 48.6343 53.972 48.6828C55.6753 48.8168 55.9559 49.1138 55.9983 50.8431C56.0349 52.3341 56.0573 53.8259 56.0667 55.3173C56.0724 56.2327 56.0418 57.148 56.0255 58.1783C54.626 58.1078 53.316 58.0426 51.9352 57.9738ZM43.5769 42.4166C45.0994 42.3355 47.3382 42.4907 47.9397 42.7311C47.2108 47.7063 47.5532 52.7606 47.2104 57.8512C45.8426 57.8923 44.5412 57.8406 43.1917 57.5782C43.6478 52.4926 43.6139 47.4798 43.5769 42.4166ZM39.5012 37.2429C38.9002 43.9764 38.6831 50.5816 38.374 57.2373C36.8605 57.1835 35.4112 57.1313 33.9775 57.08C33.4192 54.2484 33.3113 38.764 33.8476 36.741C35.7118 36.9064 37.5922 37.0735 39.5012 37.2429ZM29.6521 31.0769C29.7772 39.8485 29.5402 48.4604 29.0275 57.1228C27.2973 57.0352 25.5272 56.9346 23.6345 56.6368C24.3524 48.0974 23.7269 39.5874 24.139 31.0182C26.0134 31.0378 27.8197 31.0569 29.6521 31.0769ZM22.3897 56.4816C21.0935 56.3968 19.909 56.319 18.5888 56.2327C18.8812 55.9508 19.1007 55.7418 19.3169 55.5291C19.4329 55.4147 19.5461 55.2969 19.6557 55.1768C19.9102 54.8977 20.0751 54.5918 19.8348 54.2272C19.6272 53.9123 19.255 53.8471 18.8217 54.1542C17.5777 55.0374 16.2352 55.7397 14.8861 56.4404C14.1796 56.8071 14.1987 57.4047 14.7945 57.9367C15.4 58.4761 15.9587 59.0676 16.5324 59.642C16.7808 59.8913 16.9922 60.183 17.2613 60.4058C17.6274 60.7085 18 60.6869 18.292 60.4091C18.5733 60.1422 18.6214 59.7406 18.3579 59.3723C18.1103 59.0264 17.8102 58.7181 17.467 58.3152C18.4039 58.1351 19.2591 58.1502 20.1085 58.1828C24.5548 58.3543 28.999 58.4936 33.4522 58.4854C36.6479 58.4797 39.8428 58.8101 43.0406 58.9393C45.5881 59.0423 48.1384 59.0786 50.6883 59.125C53.8625 59.1825 57.037 59.2204 60.2112 59.268C60.3175 59.2696 60.4246 59.2872 60.5109 59.2953C61.0354 59.7613 60.73 60.5916 61.3249 60.9945C61.355 61.0148 61.4251 60.9749 61.5692 60.9415C61.5509 60.4396 61.5313 59.9157 61.5114 59.365C62.9407 59.1882 64.317 59.5348 65.6482 59.0904C64.337 58.2993 62.8377 58.6056 61.3681 58.3139C61.0851 55.0236 60.6473 51.7344 60.5512 48.4359C60.3435 41.315 60.0581 34.1901 60.3081 26.8993C60.6204 27.1958 60.8082 27.3775 61 27.5551C61.1588 27.7022 61.3066 27.8692 61.487 27.9833C61.8201 28.1935 62.2159 28.1471 62.4598 27.8957C62.7192 27.6285 62.7318 27.3144 62.5909 26.9913C62.5384 26.8695 62.4561 26.7526 62.3621 26.6581C61.7117 26.0039 61.0708 25.339 60.3948 24.7121C59.9156 24.2676 59.7217 24.2994 59.2099 24.7276C58.4199 25.3891 57.6206 26.0409 56.831 26.7042C56.6673 26.8418 56.4987 26.9909 56.3859 27.1686C56.1689 27.5112 56.2283 27.9373 56.4893 28.2237C56.7618 28.5219 57.1474 28.6115 57.5249 28.4379C57.6951 28.3597 57.8462 28.2383 58.0025 28.1316C58.154 28.0289 58.3014 27.9202 58.5803 27.7214C58.5966 28.1568 58.6117 28.4664 58.619 28.7761C58.7363 33.8784 58.8292 38.9816 58.9762 44.0827C59.0747 47.4762 59.3365 50.8561 59.9624 54.2035C60.2104 55.5279 60.2829 56.8845 60.4498 58.3514C59.095 58.2899 57.8087 58.2312 56.4271 58.1681C56.4702 57.188 56.4983 56.2763 56.5537 55.3662C56.6665 53.4992 56.8041 51.6338 56.91 49.7668C56.9629 48.8392 56.3476 48.0359 55.3109 47.7878C54.6056 47.6183 53.8637 47.5939 53.136 47.5295C52.7313 47.4937 52.3224 47.4986 51.9152 47.5035C51.2551 47.5104 51.0678 47.6208 50.9958 48.2742C50.8927 49.2156 50.8602 50.1665 50.8276 51.114C50.7559 53.2026 50.7042 55.2924 50.6407 57.3815C50.6366 57.5139 50.604 57.6454 50.5796 57.8084C49.7611 57.8381 48.9646 57.8675 48.0859 57.9C48.0708 57.4943 48.0252 57.1493 48.0517 56.8099C48.1555 55.4582 48.2907 54.1086 48.3982 52.7569C48.5831 50.4308 48.7472 48.1027 48.9386 45.7778C49.0167 44.8319 49.1409 43.8892 49.2497 42.9462C49.3523 42.0544 49.1853 41.687 48.3229 41.5269C47.1815 41.3142 46.0148 41.236 44.8575 41.1101C44.5074 41.0718 44.1535 41.0629 43.8013 41.0486C43.0793 41.0189 42.5886 41.3684 42.5019 42.0923C42.3826 43.0875 42.3117 44.0905 42.2783 45.0922C42.1883 47.8322 42.1403 50.5734 42.0519 53.3138C42.0128 54.5339 41.92 55.7528 41.8422 56.9712C41.8328 57.1248 41.7697 57.2751 41.72 57.4711C41.0522 57.4251 40.4145 57.3807 39.7512 57.3346C39.739 57.0112 39.7113 56.746 39.7231 56.4824C39.8477 53.4992 39.9923 50.5168 40.1034 47.5328C40.1894 45.227 40.2236 42.9193 40.3046 40.6131C40.3437 39.5026 40.4549 38.3946 40.5041 37.2837C40.5379 36.53 40.4247 36.3797 39.6824 36.2424C37.7889 35.8925 35.8897 35.499 33.9567 35.5605C32.5575 35.6049 32.5172 35.4875 32.4643 36.9264C32.2981 41.4821 31.8425 46.0288 32.0848 50.5954C32.1784 52.3569 32.2656 54.1192 32.3531 55.8815C32.3719 56.2538 32.3804 56.6266 32.3951 57.0238C31.7309 57.0482 31.173 57.0686 30.5297 57.0922C30.5154 56.7036 30.4812 56.3581 30.4938 56.0143C30.5785 53.6002 30.7068 51.1873 30.7536 48.7728C30.7976 46.4944 30.7703 44.2139 30.7532 41.9346C30.7324 39.1115 30.6889 36.2888 30.6596 33.4657C30.6518 32.7056 30.6669 31.945 30.6551 31.1853C30.6445 30.4956 30.3464 30.1359 29.6371 30.078C28.477 29.9831 27.3128 29.9179 26.149 29.8971C25.2889 29.8821 24.4265 29.7733 23.5628 29.9745C23.1719 30.0662 22.9915 30.2349 22.9736 30.6117C22.9394 31.3148 22.8958 32.0183 22.8775 32.7223C22.7952 35.8974 22.7044 39.0728 22.6495 42.2483C22.6262 43.6049 22.7081 44.9631 22.6963 46.3204C22.6792 48.3553 22.6307 50.3897 22.5802 52.4241C22.5538 53.4817 22.4955 54.5388 22.4491 55.5959C22.4377 55.8615 22.4145 56.1284 22.3901 56.4816H22.3897Z" fill="#0062E1"/>
<path d="M30.4619 20.7016C31.1098 20.678 31.758 20.6576 32.4059 20.6283C32.649 20.6169 32.8978 20.6124 33.1315 20.5537C33.5616 20.4458 33.8161 20.1089 33.792 19.7406C33.7676 19.3691 33.4707 19.0774 33.0379 19.0147C32.9047 18.9955 32.7671 18.9992 32.6315 19.0037C31.5467 19.042 30.4615 19.0684 29.3775 19.1267C28.3135 19.1845 27.9735 19.5373 27.9812 20.5969C27.989 21.6553 28.0394 22.7136 28.0765 23.7716C28.0822 23.9333 28.0977 24.0995 28.1429 24.2535C28.2361 24.5753 28.4617 24.7529 28.8005 24.7558C29.1401 24.7582 29.3893 24.5892 29.4578 24.2612C29.518 23.974 29.5054 23.6714 29.518 23.3744C29.5282 23.1397 29.5278 22.9047 29.5351 22.5258C29.7758 22.7507 29.9293 22.8823 30.069 23.0269C32.3672 25.4104 34.6093 27.8506 36.9739 30.1661C39.8068 32.9412 42.7709 35.5818 46.2651 37.5245C48.6122 38.8298 51.0237 40.0132 53.5219 41.0072C53.846 41.1359 54.1987 41.2133 54.5448 41.2585C54.7288 41.2821 54.9292 41.186 55.1006 41.1485C55.1141 40.7016 54.8302 40.6756 54.6071 40.6218C53.0646 40.2503 51.6549 39.5532 50.2345 38.8758C48.2547 37.9319 46.5701 36.555 44.8643 35.2176C39.9547 31.3683 35.6196 26.9202 31.5048 22.2492C31.1147 21.8064 30.7539 21.3391 30.3792 20.8829C30.4065 20.8234 30.4342 20.7623 30.4615 20.7016H30.4619Z" fill="#0062E1"/>
</svg>
