<svg width="80" height="80" viewBox="0 0 80 80" fill="none" xmlns="http://www.w3.org/2000/svg">
<rect width="80" height="80" rx="40" transform="matrix(-1 0 0 1 80 0)" fill="#E2E3FD" fill-opacity="0.36"/>
<path d="M40.9417 57.4725C40.756 57.3575 40.6658 57.329 40.6165 57.2679C38.0772 54.0671 35.0978 51.2955 32.1216 48.5195C29.463 46.0396 26.7731 43.589 24.4851 40.7434C23.2035 39.1495 22.1193 37.4432 21.3661 35.5297C20.3507 32.9485 20.5013 30.4458 21.805 28.0153C22.1719 27.3314 22.577 26.6565 23.0464 26.0401C24.8721 23.6467 27.3081 22.2885 30.318 22.4931C32.5573 22.6451 34.7375 23.3485 36.6865 24.5436C37.9435 25.3133 39.0979 26.224 39.9841 27.4386C40.7612 28.5031 41.5072 29.506 40.7554 30.9557C40.5035 31.4409 40.6333 32.1444 40.6619 32.7452C40.6736 33.0037 40.871 33.2531 40.9924 33.5246C41.9974 33.2226 42.1169 32.3671 42.3824 31.6773C43.7011 28.2531 45.9176 25.5426 48.91 23.4784C51.7226 21.5383 54.7189 21.9949 56.8711 24.6372C59.0202 27.2755 59.7421 30.3075 59.1955 33.6467C58.8488 35.7648 58.1125 37.7485 56.9588 39.5567C56.2147 40.722 55.4428 41.8781 54.5851 42.9596C50.4591 48.1603 45.5391 52.6154 40.9417 57.4725ZM42.2227 27.0242C41.1943 25.972 40.2892 24.8606 39.2037 23.9714C36.7099 21.9293 33.8013 20.6952 30.6199 20.2613C28.0411 19.91 25.6174 20.5264 23.5476 22.1644C20.6273 24.4761 18.6594 27.3704 18.1536 31.1603C17.8673 33.3077 18.3874 35.2861 19.2145 37.2145C20.391 39.9568 22.1718 42.3023 24.2254 44.4262C26.2998 46.5716 28.4527 48.6429 30.6199 50.6947C33.6688 53.5812 36.7502 56.4287 39.2595 59.829C40.0685 60.9241 41.1066 60.9832 42.0072 60.0524C45.6475 56.2897 49.3301 52.566 52.8756 48.7163C54.7169 46.7184 56.3913 44.5496 57.9859 42.3458C59.8317 39.7944 61.1023 36.9391 61.5003 33.7838C62.0359 29.5235 61.0199 25.6914 57.9976 22.5392C55.3493 19.7761 51.742 19.2559 48.3932 21.1564C46.1812 22.4119 44.4172 24.1961 42.8836 26.2136C42.6765 26.4864 42.461 26.7527 42.2441 27.0183C42.2234 27.043 42.1623 27.0359 42.2227 27.0242Z" fill="#0062E1"/>
<path d="M34.7188 25.9006C33.9 24.8977 32.9158 24.7009 31.9815 24.5548C28.8099 24.0579 25.785 25.9688 24.8196 29.0559C23.9373 31.8788 24.3632 34.5756 26.009 36.984C26.8758 38.2519 28.0165 39.3489 29.1215 40.4336C30.2902 41.5807 31.5634 42.6219 32.7911 43.7092C32.9846 43.8807 33.1534 44.1262 33.3793 44.2041C33.6274 44.2892 34.0163 44.3275 34.1812 44.1898C34.3558 44.0456 34.4759 43.5994 34.3785 43.4085C34.1078 42.8778 33.7689 42.3556 33.3553 41.9288C32.0906 40.6252 30.8038 39.3398 29.478 38.0973C27.3017 36.0585 26.6914 33.476 26.894 30.6473C27.0277 28.7883 28.3372 27.6452 29.7546 26.6813C31.0583 25.794 32.5093 25.4693 34.074 25.9493C34.1851 25.983 34.3201 25.9343 34.7188 25.9006Z" fill="#0062E1"/>
</svg>
