<svg width="196" height="51" viewBox="0 0 196 51" fill="none" xmlns="http://www.w3.org/2000/svg">
<g clip-path="url(#clip0_404_841)">
<path d="M51.4282 25.4956C51.4282 39.4382 39.9156 50.7436 25.7181 50.7436C11.5206 50.7436 0 39.4382 0 25.4956C0 11.553 11.5126 0.247559 25.7181 0.247559C39.9236 0.247559 51.4282 11.553 51.4282 25.4956ZM25.7181 17.3372L13.122 29.7022L15.6954 32.2278L25.7181 22.3804L35.7408 32.2278L38.3062 29.766L25.7181 17.3372Z" fill="#4399FF"/>
<path d="M73.1154 35.9398C74.3555 36.0158 75.5904 35.7236 76.6649 35.0999C77.7394 34.4762 78.6056 33.5488 79.1545 32.4342H82.5725C81.8973 34.2647 80.7042 35.8592 79.1386 37.0233C77.3611 38.2488 75.2326 38.8613 73.0756 38.7681C71.6483 38.8224 70.2258 38.5719 68.9028 38.0334C67.5799 37.4949 66.3868 36.6807 65.4032 35.645C63.4725 33.5847 62.4381 30.8425 62.527 28.0204C62.4228 25.2167 63.4079 22.4814 65.2757 20.3878C67.2928 18.3988 70.0117 17.2837 72.8445 17.2837C75.6773 17.2837 78.3963 18.3988 80.4134 20.3878C82.2812 22.4814 83.2662 25.2167 83.162 28.0204V29.2712H65.7378C65.9019 31.089 66.7167 32.7865 68.0324 34.0516C68.7133 34.6858 69.513 35.1792 70.3853 35.5032C71.2577 35.8273 72.1855 35.9756 73.1154 35.9398ZM72.8605 20.093C71.0802 20.0458 69.3505 20.6881 68.0324 21.8857C66.7877 23.0676 65.991 24.6442 65.7776 26.3473H79.9513C79.7379 24.6442 78.9412 23.0676 77.6965 21.8857C76.3751 20.6883 74.6431 20.0463 72.8605 20.093Z" fill="black"/>
<path d="M89.951 38.4411H86.8438V9.25732H89.9669L89.951 38.4411Z" fill="black"/>
<path d="M104.459 35.9398C105.7 36.0153 106.936 35.723 108.011 35.0994C109.087 34.4758 109.955 33.5487 110.506 32.4342H113.932C113.251 34.2637 112.056 35.8573 110.49 37.0233C108.713 38.2488 106.584 38.8613 104.427 38.7681C103 38.8209 101.578 38.5697 100.255 38.0313C98.9325 37.4928 97.7393 36.6794 96.7547 35.645C94.8241 33.5847 93.7897 30.8425 93.8786 28.0204C93.7744 25.2167 94.7594 22.4814 96.6273 20.3878C98.6443 18.3988 101.363 17.2837 104.196 17.2837C107.029 17.2837 109.748 18.3988 111.765 20.3878C113.633 22.4814 114.618 25.2167 114.514 28.0204V29.2712H97.0814C97.2455 31.089 98.0603 32.7865 99.3759 34.0516C100.057 34.6858 100.857 35.1792 101.729 35.5032C102.601 35.8273 103.529 35.9756 104.459 35.9398ZM104.212 20.093C102.429 20.0463 100.697 20.6883 99.3759 21.8857C98.1313 23.0676 97.3346 24.6442 97.1212 26.3473H111.295C111.081 24.646 110.288 23.0703 109.048 21.8857C107.726 20.6897 105.994 20.0479 104.212 20.093Z" fill="black"/>
<path d="M135.441 17.5996L127.315 38.4418H123.65L115.523 17.5996H118.941L125.53 35.1274L132.071 17.5996H135.441Z" fill="black"/>
<path d="M154.189 35.1043C152.516 37.5529 150.027 38.7746 146.724 38.7692C145.353 38.8102 143.99 38.5521 142.73 38.0127C141.47 37.4733 140.342 36.6657 139.426 35.6461C137.576 33.5448 136.594 30.8196 136.677 28.0215C136.592 25.2208 137.575 22.4926 139.426 20.3889C140.381 19.3514 141.551 18.5345 142.854 17.9951C144.157 17.4558 145.562 17.2069 146.971 17.2658C148.397 17.2057 149.815 17.5152 151.086 18.1643C152.358 18.8133 153.441 19.78 154.229 20.9705V17.6004H157.352V38.4426H154.229L154.189 35.1043ZM147.138 35.9011C148.147 35.946 149.153 35.7589 150.078 35.3542C151.004 34.9496 151.824 34.338 152.476 33.5667C153.757 31.9971 154.423 30.0144 154.348 27.9896C154.426 25.9644 153.76 23.9808 152.476 22.4126C151.825 21.6389 151.006 21.0252 150.08 20.619C149.154 20.2128 148.148 20.0251 147.138 20.0703C146.118 20.0368 145.103 20.2294 144.167 20.6344C143.23 21.0394 142.394 21.6466 141.72 22.4126C140.386 23.9577 139.686 25.9499 139.76 27.9896C139.689 30.029 140.389 32.0204 141.72 33.5667C142.392 34.3371 143.227 34.9495 144.163 35.3599C145.1 35.7704 146.116 35.9688 147.138 35.9409V35.9011Z" fill="black"/>
<path d="M164.77 38.4424V20.3489H160.523V17.6002H164.77V10.1349H167.901V17.6002H172.681V20.3489H167.901V38.4424H164.77Z" fill="black"/>
<path d="M184.783 35.9398C186.023 36.0159 187.258 35.7237 188.333 35.0999C189.407 34.4762 190.273 33.5488 190.822 32.4343H194.24C193.565 34.2647 192.372 35.8592 190.806 37.0234C189.026 38.2499 186.895 38.8625 184.735 38.7682C183.309 38.8213 181.888 38.5703 180.567 38.0318C179.245 37.4933 178.054 36.6797 177.071 35.6451C175.14 33.5847 174.106 30.8426 174.195 28.0204C174.091 25.2167 175.076 22.4815 176.943 20.3879C178.959 18.3969 181.679 17.2805 184.512 17.2805C187.346 17.2805 190.065 18.3969 192.081 20.3879C193.955 22.4785 194.943 25.2151 194.838 28.0204V29.2713H177.406C177.563 31.0894 178.375 32.7883 179.692 34.0516C180.375 34.6861 181.176 35.1795 182.049 35.5036C182.923 35.8276 183.852 35.9759 184.783 35.9398ZM184.528 20.0931C182.746 20.048 181.014 20.6898 179.692 21.8857C178.453 23.0704 177.659 24.6461 177.445 26.3473H191.619C191.406 24.6442 190.609 23.0676 189.364 21.8857C188.043 20.6883 186.311 20.0463 184.528 20.0931Z" fill="black"/>
</g>
<defs>
<clipPath id="clip0_404_841">
<rect width="195.993" height="50.99" fill="white"/>
</clipPath>
</defs>
</svg>
