<svg width="1103" height="169" viewBox="0 0 1103 169" fill="none" xmlns="http://www.w3.org/2000/svg">
<path d="M624.775 131.532C602.415 131.532 588.172 117.595 588.172 91.8656C588.172 69.3525 603.181 51.5871 624.009 51.5871C643.153 51.5871 656.477 63.8391 657.09 86.0459V89.4152H604.406V91.4061C604.406 111.009 614.514 121.577 630.748 121.577C639.171 121.577 645.451 118.973 651.577 114.685L655.252 119.433C647.288 127.09 637.027 131.532 624.775 131.532ZM604.866 82.3703L641.775 81.9108C641.315 67.9741 634.73 58.7851 624.316 58.7851C613.748 58.7851 606.857 67.5147 604.866 82.3703ZM707.614 130H668.867V126.018L674.993 123.721C679.434 121.883 680.813 120.198 680.813 115.144V38.5693C680.813 32.2901 679.128 30.146 674.84 29.2271L669.173 28.0019V24.02L692.146 15.1373L695.821 17.2814V115.144C695.821 120.198 697.047 121.883 701.488 123.721L707.614 126.018V130ZM756.389 131.532C734.029 131.532 719.786 117.595 719.786 91.8656C719.786 69.3525 734.795 51.5871 755.623 51.5871C774.767 51.5871 788.091 63.8391 788.703 86.0459V89.4152H736.02V91.4061C736.02 111.009 746.128 121.577 762.362 121.577C770.785 121.577 777.064 118.973 783.19 114.685L786.866 119.433C778.902 127.09 768.641 131.532 756.389 131.532ZM736.479 82.3703L773.388 81.9108C772.929 67.9741 766.344 58.7851 755.929 58.7851C745.362 58.7851 738.47 67.5147 736.479 82.3703ZM842.319 127.703L833.59 131.685L805.563 67.6678C803.266 62.3076 802.041 61.2355 798.365 59.2446L794.077 57.1005V53.1186H831.752V57.1005L827.464 58.4788C823.329 59.704 821.644 61.3887 821.644 63.5328C821.644 64.4517 821.95 65.6769 822.716 67.5147L841.247 111.316L859.625 67.5147C860.391 65.6769 860.697 64.4517 860.697 63.5328C860.697 61.3887 858.859 59.704 854.878 58.4788L850.436 57.1005V53.1186H880.147V57.1005L875.093 59.5509C872.03 61.2355 870.346 62.4607 868.202 67.5147L842.319 127.703ZM908.625 131.532C894.229 131.532 884.887 123.108 884.887 110.244C884.887 99.9825 891.778 92.325 903.877 88.19C911.075 85.7396 920.417 84.3612 930.219 83.9018V79.4604C930.219 65.3706 925.318 59.0914 915.823 59.0914C911.841 59.0914 908.012 59.8572 904.949 61.8481C902.346 63.5328 900.508 66.4426 897.445 75.3254H891.931L887.337 61.695C897.751 54.6501 907.247 51.5871 917.661 51.5871C936.651 51.5871 945.228 59.5509 945.228 79.7667V111.316C945.228 116.676 946.606 118.514 951.66 119.126L957.173 119.739L957.939 123.721L938.03 131.532H934.66L930.832 120.198C925.471 127.09 916.895 131.532 908.625 131.532ZM914.445 120.811C919.652 120.811 925.625 118.207 930.219 113.153V90.1809C923.787 90.4872 918.12 91.253 913.832 92.4782C905.102 94.9286 900.508 100.136 900.508 107.793C900.508 115.757 906.021 120.811 914.445 120.811ZM995.011 131.532C981.534 131.532 975.714 124.946 975.714 105.955V61.5418H963.922V54.9564L976.633 52.6591L986.894 31.8307L990.723 33.9748V53.1186H1014.31V61.5418H990.723V103.658C990.723 117.289 994.399 122.036 1002.67 122.036C1006.8 122.036 1011.25 120.658 1014.92 119.126L1016.45 124.487C1011.55 128.315 1002.97 131.532 995.011 131.532ZM1062.24 131.532C1039.88 131.532 1025.64 117.595 1025.64 91.8656C1025.64 69.3525 1040.65 51.5871 1061.47 51.5871C1080.62 51.5871 1093.94 63.8391 1094.56 86.0459V89.4152H1041.87V91.4061C1041.87 111.009 1051.98 121.577 1068.21 121.577C1076.64 121.577 1082.92 118.973 1089.04 114.685L1092.72 119.433C1084.75 127.09 1074.49 131.532 1062.24 131.532ZM1042.33 82.3703L1079.24 81.9108C1078.78 67.9741 1072.2 58.7851 1061.78 58.7851C1051.21 58.7851 1044.32 67.5147 1042.33 82.3703Z" fill="black"/>
<path d="M401.26 80.5001C401.26 112.531 427.709 138.503 460.325 138.503C492.942 138.503 519.408 112.531 519.408 80.5001C519.408 48.4692 492.96 22.4968 460.325 22.4968C427.69 22.4968 401.26 48.4692 401.26 80.5001ZM460.325 61.7575L489.263 90.1642L483.351 95.9664L460.325 73.3435L437.299 95.9664L431.406 90.3106L460.325 61.7575Z" fill="#4399FF"/>
<path d="M51.7648 128.315L43.0352 131.532L13.1709 39.7945C11.4863 34.8937 10.5674 33.6685 5.97286 31.6775L0.612601 29.2271V25.2452H40.2785V29.2271L35.2246 31.3712C30.1706 33.3622 29.4048 34.4342 29.4048 36.272C29.4048 37.1909 29.7112 38.4161 30.3238 40.2539L50.999 106.415L77.6472 27.3893L86.6831 25.0921L114.25 106.415L134.313 40.8665C134.925 39.0287 135.538 37.1909 135.538 36.1189C135.538 34.2811 134.772 33.209 129.565 31.2181L124.205 29.2271V25.2452H157.132V29.2271L151.006 31.8307C146.871 33.5153 145.34 35.6594 143.808 40.2539L115.628 128.315L107.511 131.532L78.4129 48.6772L51.7648 128.315ZM200.822 130H162.381V126.018L168.507 123.721C173.102 121.883 174.327 120.045 174.327 115.144V38.5693C174.327 32.4433 172.642 30.146 168.354 29.2271L162.687 28.0019V24.02L185.66 15.1373L189.336 17.2814V66.7489C196.687 57.1005 206.642 51.5871 216.443 51.5871C232.371 51.5871 242.326 62.767 242.326 80.8388V115.144C242.326 120.045 243.551 121.883 247.992 123.721L254.118 126.018V130H215.831V126.018L221.957 123.721C226.092 122.036 227.317 120.352 227.317 115.144V84.0549C227.317 71.0371 221.191 63.9922 210.011 63.9922C202.353 63.9922 194.543 68.2804 189.336 75.1722V115.144C189.336 120.352 190.408 122.036 194.696 123.721L200.822 126.018V130ZM274.006 168.288L262.52 158.792L264.358 155.27C275.997 152.973 284.88 144.549 292.69 130L265.43 67.5147C263.286 62.4607 262.06 61.0824 258.232 59.0914L253.943 56.9473V53.1186H291.772V56.9473L287.483 58.4788C283.501 59.704 281.664 61.2355 281.664 63.3796C281.664 64.4517 281.817 65.6769 282.583 67.5147L301.267 112.081L319.492 67.5147C320.258 65.6769 320.564 64.4517 320.564 63.3796C320.564 61.2355 318.726 59.704 314.744 58.4788L310.456 56.9473V53.1186H340.014V56.9473L335.113 59.5509C331.744 61.2355 330.212 62.6139 328.068 67.5147L303.105 126.478C293.15 149.756 283.348 163.234 274.006 168.288Z" fill="black"/>
</svg>
